<svg width="34" height="15" viewBox="0 0 34 15" fill="none" xmlns="http://www.w3.org/2000/svg">
<path d="M33 8.5C33.5523 8.5 34 8.05228 34 7.5C34 6.94772 33.5523 6.5 33 6.5L33 8.5ZM0.292893 6.79289C-0.0976295 7.18341 -0.0976296 7.81658 0.292892 8.2071L6.65685 14.5711C7.04738 14.9616 7.68054 14.9616 8.07107 14.5711C8.46159 14.1805 8.46159 13.5474 8.07107 13.1569L2.41421 7.5L8.07107 1.84314C8.46159 1.45262 8.46159 0.819454 8.07107 0.42893C7.68054 0.0384056 7.04738 0.0384055 6.65686 0.42893L0.292893 6.79289ZM33 6.5L1 6.5L1 8.5L33 8.5L33 6.5Z" fill="#666666"/>
</svg>
