<svg width="104" height="104" viewBox="0 0 104 104" fill="none" xmlns="http://www.w3.org/2000/svg">
<rect width="20" height="20" rx="2" fill="#FFB600"/>
<rect x="28" width="20" height="20" rx="2" fill="#FFB600"/>
<rect x="56" width="20" height="20" rx="2" fill="#FFB600"/>
<rect y="28" width="20" height="20" rx="2" fill="#FFB600"/>
<rect x="28" y="28" width="20" height="20" rx="2" fill="white"/>
<rect x="56" y="28" width="20" height="20" rx="2" fill="white"/>
<rect x="84" y="28" width="20" height="20" rx="2" fill="white"/>
<rect y="56" width="20" height="20" rx="2" fill="#FFB600"/>
<rect x="28" y="56" width="20" height="20" rx="2" fill="white"/>
<rect x="56" y="56" width="20" height="20" rx="2" fill="white"/>
<rect x="84" y="56" width="20" height="20" rx="2" fill="white"/>
<rect x="28" y="84" width="20" height="20" rx="2" fill="white"/>
<rect x="56" y="84" width="20" height="20" rx="2" fill="white"/>
<rect x="84" y="84" width="20" height="20" rx="2" fill="white"/>
</svg>
