<svg width="785" height="216" viewBox="0 0 785 216" fill="none" xmlns="http://www.w3.org/2000/svg">
<path d="M609 0V30C609 35.5228 604.523 40 599 40H539C533.477 40 529 35.5228 529 30V0" stroke="#E0E0E0" stroke-width="2"/>
<path d="M81 0V30C81 35.5228 76.5228 40 71 40H11C5.47715 40 1 35.5228 1 30V0" stroke="#E0E0E0" stroke-width="2"/>
<path d="M627 49H687C691.971 49 696 53.0294 696 58V118C696 122.971 691.971 127 687 127H627C622.029 127 618 122.971 618 118V58C618 53.0294 622.029 49 627 49Z" stroke="#E0E0E0" stroke-width="2"/>
<path d="M451 49H511C515.971 49 520 53.0294 520 58V118C520 122.971 515.971 127 511 127H451C446.029 127 442 122.971 442 118V58C442 53.0294 446.029 49 451 49Z" stroke="#E0E0E0" stroke-width="2"/>
<path d="M275 49H335C339.971 49 344 53.0294 344 58V118C344 122.971 339.971 127 335 127H275C270.029 127 266 122.971 266 118V58C266 53.0294 270.029 49 275 49Z" stroke="#E0E0E0" stroke-width="2"/>
<path d="M187 49H247C251.971 49 256 53.0294 256 58V118C256 122.971 251.971 127 247 127H187C182.029 127 178 122.971 178 118V58C178 53.0294 182.029 49 187 49Z" stroke="#E0E0E0" stroke-width="2"/>
<path d="M275 137H335C339.971 137 344 141.029 344 146V206C344 210.971 339.971 215 335 215H275C270.029 215 266 210.971 266 206V146C266 141.029 270.029 137 275 137Z" stroke="#E0E0E0" stroke-width="2"/>
<path d="M539 137H599C603.971 137 608 141.029 608 146V206C608 210.971 603.971 215 599 215H539C534.029 215 530 210.971 530 206V146C530 141.029 534.029 137 539 137Z" stroke="#E0E0E0" stroke-width="2"/>
<path d="M627 137H687C691.971 137 696 141.029 696 146V206C696 210.971 691.971 215 687 215H627C622.029 215 618 210.971 618 206V146C618 141.029 622.029 137 627 137Z" stroke="#E0E0E0" stroke-width="2"/>
<path d="M715 49H775C779.971 49 784 53.0294 784 58V118C784 122.971 779.971 127 775 127H715C710.029 127 706 122.971 706 118V58C706 53.0294 710.029 49 715 49Z" stroke="#E0E0E0" stroke-width="2"/>
</svg>
